<svg width="16" height="20" viewBox="0 0 16 20" fill="none" xmlns="http://www.w3.org/2000/svg">
<path fill-rule="evenodd" clip-rule="evenodd" d="M5.5 4.03687C5.5 2.74582 6.52164 1.72534 7.75 1.72534C8.97836 1.72534 10 2.74582 10 4.03687V4.30737H5.5V4.03687ZM4 5.80737V7.09839C4 7.5126 4.33579 7.84839 4.75 7.84839C5.16422 7.84839 5.5 7.5126 5.5 7.09839V5.80737H10V7.09839C10 7.5126 10.3358 7.84839 10.75 7.84839C11.1642 7.84839 11.5 7.5126 11.5 7.09839V5.80737H13.0544L13.9413 17.574H1.55866L2.4456 5.80737H4ZM4 4.30737V4.03687C4 1.94625 5.66465 0.225342 7.75 0.225342C9.83535 0.225342 11.5 1.94625 11.5 4.03687V4.30737H13.75C14.1423 4.30737 14.4684 4.60976 14.4979 5.001L15.4979 18.2676C15.5136 18.4757 15.4418 18.681 15.2999 18.834C15.158 18.987 14.9587 19.074 14.75 19.074H0.750002C0.541295 19.074 0.342026 18.987 0.200102 18.834C0.0581783 18.681 -0.0135636 18.4757 0.00212368 18.2676L1.00212 5.001C1.03161 4.60976 1.35766 4.30737 1.75 4.30737H4Z" fill="white"/>
</svg>
