<svg width="16" height="20" viewBox="0 0 16 20" fill="none" xmlns="http://www.w3.org/2000/svg">
<path fill-rule="evenodd" clip-rule="evenodd" d="M4.5 5.05737C4.5 3.20272 5.96935 1.72534 7.75 1.72534C9.53065 1.72534 11 3.20272 11 5.05737C11 6.91203 9.53065 8.3894 7.75 8.3894C5.96935 8.3894 4.5 6.91203 4.5 5.05737ZM7.75 0.225342C5.11237 0.225342 3 2.40314 3 5.05737C3 7.7116 5.11237 9.8894 7.75 9.8894C10.3876 9.8894 12.5 7.7116 12.5 5.05737C12.5 2.40314 10.3876 0.225342 7.75 0.225342ZM1.5 16.6231C1.5 15.126 2.65116 13.9714 4 13.9714H11.5C12.8488 13.9714 14 15.126 14 16.6231V17.574H1.5V16.6231ZM4 12.4714C1.75899 12.4714 0 14.3628 0 16.6231V18.324C0 18.7382 0.335786 19.074 0.75 19.074H14.75C15.1642 19.074 15.5 18.7382 15.5 18.324V16.6231C15.5 14.3628 13.741 12.4714 11.5 12.4714H4Z" fill="white"/>
</svg>
